<mxfile host="app.diagrams.net" modified="2024-07-05T04:15:16.302Z" agent="Mozilla/5.0 (Windows NT 10.0; Win64; x64) AppleWebKit/537.36 (KHTML, like Gecko) Chrome/126.0.0.0 Safari/537.36" version="24.6.4" etag="G1ku1ZR2rdJVuFM63Adw" type="github">
  <diagram name="Page-1" id="37a9bc3mUNbTeSmhV0sz">
    <mxGraphModel>
      <root>
        <mxCell id="0" />
        <mxCell id="1" parent="0" />
      </root>
    </mxGraphModel>
  </diagram>
</mxfile>
